<svg version="1.1" xmlns="http://www.w3.org/2000/svg" xmlns:xlink="http://www.w3.org/1999/xlink" width="618.29165" height="216.21684" viewBox="0,0,618.29165,216.21684"><defs><linearGradient x1="110.17503" y1="140.75815" x2="110.17503" y2="355.97502" gradientUnits="userSpaceOnUse" id="color-1"><stop offset="0" stop-color="#006aff"/><stop offset="1" stop-color="#00ff30"/></linearGradient></defs><g transform="translate(-9.92503,-140.25817)"><g data-paper-data="{&quot;isPaintingLayer&quot;:true}" fill-rule="nonzero" stroke-linecap="butt" stroke-linejoin="miter" stroke-miterlimit="10" stroke-dasharray="" stroke-dashoffset="0" style="mix-blend-mode: normal"><path d="M211.55002,227.10001v-83.27499h216v83.27499z" fill="#ffffff" stroke="#000000" stroke-width="1"/><path d="M237.06765,141.875c2.64706,0 2.64706,2.5 2.64706,2.5c0,1.4916 0,2.98667 0,4.48471c4.82119,0.55244 9.53886,2.16625 12.58597,4.06017c0,0 2.20249,1.38675 0.73417,3.46688c-1.46832,2.08013 -3.67081,0.69338 -3.67081,0.69338c-2.63796,-1.6878 -6.14122,-2.78402 -9.64932,-3.15802c0,6.40335 0,12.84974 0,19.29917c1.95042,0.94245 3.91643,1.64534 5.7219,2.06102c1.18531,0.99479 2.61965,1.77571 3.55592,2.98437c3.06344,3.95468 2.15133,8.0313 1.26346,12.45211c-0.30568,1.52202 -1.04008,6.26655 -2.07667,7.0721c-1.63095,1.26743 -4.03904,1.1745 -6.08771,1.65966c-0.82283,0.19486 -1.6133,0.34544 -2.37691,0.45186c0,1.70318 0,3.40264 0,5.09761c0,0 0,2.5 -2.64706,2.5c-2.64706,0 -2.64706,-2.5 -2.64706,-2.5c0,-1.70756 0,-3.41512 0,-5.12267c-2.74718,-0.46684 -5.27056,-1.68376 -7.96115,-3.64161c-0.5756,-0.05812 -1.09601,-0.2905 -1.50096,-0.64017c-0.59911,-0.47891 -1.23175,-1.34039 -0.71119,-2.67783c0.02375,-0.06354 0.05014,-0.1259 0.07903,-0.18696c0.59929,-1.31151 1.68812,-1.52373 2.47254,-1.48022c0.4211,0.00807 0.81806,0.10901 1.16885,0.28202l1.72507,0.74407c1.77685,1.31785 3.22642,2.04387 4.72781,2.38586c0,-6.15801 0,-12.31602 0,-18.47402c-3.98647,-2.54154 -7.32637,-6.0771 -9.71223,-9.9517c-2.17959,-3.53963 -3.59463,-7.1156 -1.66567,-11.08514c2.05863,-4.23638 6.45676,-6.07822 11.3779,-6.43114c0,-1.24016 0,-2.48032 0,-3.72048v-0.625c0,0 0,-2.5 2.64706,-2.5zM241.04369,194.54949c1.1424,-0.15082 2.46532,0.23974 3.44171,-0.34034c0.51891,-0.30828 -0.02051,-1.16145 0.05352,-1.73619c0.11661,-0.9052 0.33542,-1.79609 0.51686,-2.69171c0.86684,-4.27872 1.48506,-6.9698 -2.06297,-10.06352c-1.11932,-0.22852 -2.21341,-0.53769 -3.2781,-0.91868c0,5.31874 0,10.63169 0,15.9164c0.42232,-0.04865 0.86416,-0.1046 1.32897,-0.16596zM232.90205,154.18514c-2.17753,0.45601 -5.85465,2.08691 -5.62856,4.79981c0.35465,4.25544 3.32939,8.08147 7.14711,10.99728c0,-5.34898 0,-10.69796 0,-16.04695c-0.51818,0.06349 -1.02549,0.1466 -1.51855,0.24986z" fill="#000000" stroke="none" stroke-width="0.5"/><path d="M428.55002,345.97502v-194.875h199.16666v194.875z" fill="#fff800" stroke="#000000" stroke-width="1"/><path d="M10.42503,355.97502v-215.21684h199.5v215.21684z" fill="url(#color-1)" stroke="#000000" stroke-width="1"/></g></g></svg>